<?xml version="1.0" encoding="UTF-8" standalone="no"?>
<svg
   xmlns:dc="http://purl.org/dc/elements/1.1/"
   xmlns:cc="http://creativecommons.org/ns#"
   xmlns:rdf="http://www.w3.org/1999/02/22-rdf-syntax-ns#"
   xmlns:svg="http://www.w3.org/2000/svg"
   xmlns="http://www.w3.org/2000/svg"
   xmlns:sodipodi="http://sodipodi.sourceforge.net/DTD/sodipodi-0.dtd"
   xmlns:inkscape="http://www.inkscape.org/namespaces/inkscape"
   viewBox="0 0 264.04001 83.373337"
   height="83.373337"
   width="264.04001"
   xml:space="preserve"
   id="svg2"
   version="1.1"
   sodipodi:docname="faltin_logo_cmyk.svg"
   inkscape:version="0.92.2 (5c3e80d, 2017-08-06)"><sodipodi:namedview
     pagecolor="#ffffff"
     bordercolor="#666666"
     borderopacity="1"
     objecttolerance="10"
     gridtolerance="10"
     guidetolerance="10"
     inkscape:pageopacity="0"
     inkscape:pageshadow="2"
     inkscape:window-width="2560"
     inkscape:window-height="1377"
     id="namedview3743"
     showgrid="false"
     inkscape:zoom="3.2203298"
     inkscape:cx="135.84413"
     inkscape:cy="15.860332"
     inkscape:window-x="-8"
     inkscape:window-y="32"
     inkscape:window-maximized="1"
     inkscape:current-layer="g12" /><metadata
     id="metadata8"><rdf:RDF><cc:Work
         rdf:about=""><dc:format>image/svg+xml</dc:format><dc:type
           rdf:resource="http://purl.org/dc/dcmitype/StillImage" /></cc:Work></rdf:RDF></metadata><defs
     id="defs6" /><g
     transform="matrix(1.3333333,0,0,-1.3333333,0,83.373333)"
     id="g10"><g
       transform="scale(0.1)"
       id="g12"><path
         id="path14"
         style="fill:#f14624;fill-opacity:1;fill-rule:nonzero;stroke:none"
         d="M 547.383,490.742 C 490.93,572.031 396.941,625.293 290.469,625.293 158.66,625.293 45.9844,543.672 0,428.262 c 62.6836,13.476 146.262,-46.543 181.199,-74.739 0,0 234.406,266.516 366.184,137.219" /><path
         id="path16"
         style="fill:#f14624;fill-opacity:1;fill-rule:nonzero;stroke:none"
         d="M 374.316,211.465 C 329.211,238.867 284.973,266.113 244.91,290.93 200.398,246.785 145.383,197.656 91.9727,166.609 62.5703,149.504 37.4414,150.945 16.3789,162.195 69.5508,65.5195 172.344,0 290.469,0 411.68,0 516.688,69.0156 568.574,169.855 510.637,159.297 437.805,172.93 374.316,211.465" /><path
         id="path18"
         style="fill:#f14624;fill-opacity:1;fill-rule:nonzero;stroke:none"
         d="m 19.8164,330.996 c -6.7031,-35.558 -1.75,-82.344 29.8008,-81.543 31.5547,0.813 91.3518,64.016 121.2348,93.621 -61.204,38.703 -142.7387,31.828 -151.0356,-12.078" /><path
         id="path20"
         style="fill:#ffffff;fill-opacity:1;fill-rule:nonzero;stroke:none"
         d="m 676.426,381.398 v 3.368 h 142.469 v -41.219 h -3.141 c -2.27,5.789 -4.707,11.016 -7.348,15.672 -2.652,4.66 -5.738,8.633 -9.273,11.933 -3.547,3.282 -7.695,5.821 -12.422,7.598 -4.746,1.758 -10.332,2.648 -16.738,2.648 h -36.41 V 303.77 h 13.5 c 5.933,0 10.957,0.859 15.054,2.531 4.106,1.687 7.5,4.097 10.246,7.234 2.742,3.145 4.973,6.926 6.758,11.34 1.746,4.41 3.215,9.363 4.336,14.813 h 3.137 v -74.969 h -3.137 c -1.121,4.656 -2.449,9.168 -3.965,13.511 -1.543,4.336 -3.594,8.149 -6.172,11.438 -2.55,3.301 -5.754,5.906 -9.504,7.844 -3.765,1.922 -8.472,2.879 -14.097,2.879 h -16.156 v -83.887 h 22.406 v -3.379 h -79.543 v 3.379 h 22.187 v 164.894 h -22.187" /><path
         id="path22"
         style="fill:#ffffff;fill-opacity:1;fill-rule:nonzero;stroke:none"
         d="m 887.59,272.91 c -0.317,-0.957 -0.942,-1.887 -1.809,-2.762 -0.879,-0.878 -2.453,-1.894 -4.676,-3.007 -3.07,-1.457 -6.132,-2.864 -9.179,-4.231 -3.071,-1.355 -5.781,-3.086 -8.203,-5.176 -2.395,-2.089 -4.36,-4.668 -5.903,-7.714 -1.519,-3.047 -2.293,-6.985 -2.293,-11.817 0,-1.926 0.137,-4.18 0.379,-6.738 0.239,-2.586 0.871,-5.059 1.914,-7.481 1.035,-2.402 2.602,-4.453 4.707,-6.14 2.075,-1.692 4.973,-2.531 8.672,-2.531 2.071,0 4.121,0.48 6.145,1.437 2.004,0.965 3.801,2.449 5.429,4.473 1.59,1.992 2.903,4.656 3.86,7.949 0.957,3.289 1.433,7.266 1.433,11.922 v 31.816 z m 39.43,-61.933 C 922.734,210.332 918.77,210 915.066,210 c -8.191,0 -14.253,1.453 -18.191,4.336 -3.937,2.891 -6.387,6.902 -7.344,12.07 h -0.476 c -2.578,-6.433 -6.117,-10.769 -10.617,-13.039 -4.5,-2.234 -11.016,-3.367 -19.532,-3.367 -3.855,0 -7.793,0.398 -11.804,1.211 -4.028,0.801 -7.715,2.082 -11.094,3.855 -3.379,1.758 -6.098,4.211 -8.203,7.344 -2.075,3.149 -3.137,6.945 -3.137,11.457 0,4.668 0.93,8.555 2.793,11.699 1.836,3.133 4.258,5.782 7.219,7.95 2.965,2.168 6.343,3.933 10.133,5.293 3.773,1.379 7.66,2.683 11.679,3.996 6.594,1.914 11.938,3.562 16.035,4.929 4.106,1.375 7.27,2.813 9.536,4.336 2.222,1.535 3.796,3.262 4.707,5.196 0.875,1.922 1.296,4.414 1.296,7.461 v 14.707 c 0,4.336 -1.035,8.281 -3.117,11.816 -2.097,3.535 -6.031,5.293 -11.836,5.293 -3.672,0 -6.89,-0.84 -9.629,-2.527 -2.742,-1.672 -4.097,-4.786 -4.097,-9.289 0,-0.477 0.078,-1.309 0.23,-2.52 0.168,-1.199 0.332,-2.527 0.488,-3.965 0.161,-1.465 0.317,-2.82 0.481,-4.109 0.156,-1.289 0.242,-2.168 0.242,-2.649 0,-2.414 -0.562,-4.316 -1.68,-5.671 -1.113,-1.36 -2.449,-2.368 -3.96,-3 -1.543,-0.657 -3.145,-1.016 -4.844,-1.094 -1.684,-0.078 -3.086,-0.117 -4.199,-0.117 -1.625,0 -3.286,0.117 -4.961,0.351 -1.672,0.242 -3.164,0.801 -4.465,1.692 -1.281,0.878 -2.371,2.128 -3.25,3.738 -0.871,1.601 -1.328,3.777 -1.328,6.504 0,4.179 1.172,7.922 3.511,11.218 2.317,3.286 5.403,6.028 9.258,8.196 3.86,2.168 8.242,3.801 13.149,4.941 4.902,1.121 10,1.68 15.32,1.68 6.094,0 11.848,-0.481 17.219,-1.438 5.398,-0.964 10.054,-2.742 13.992,-5.308 3.933,-2.563 7.082,-6.074 9.387,-10.488 2.339,-4.426 3.511,-10.012 3.511,-16.75 v -59.786 c 0,-3.047 0.434,-5.742 1.313,-8.078 0.894,-2.32 3.101,-3.484 6.648,-3.484 2.078,0 3.797,0.398 5.164,1.203 1.379,0.801 2.68,1.922 3.989,3.379 l 2.183,-2.18 c -2.265,-3.367 -5.508,-5.383 -9.765,-6.015" /><path
         id="path24"
         style="fill:#ffffff;fill-opacity:1;fill-rule:nonzero;stroke:none"
         d="M 993.895,386.941 V 216.504 h 16.155 v -3.379 h -61.722 v 3.379 h 16.152 v 167.059 h -16.152 v 3.378 h 45.567" /><path
         id="path26"
         style="fill:#ffffff;fill-opacity:1;fill-rule:nonzero;stroke:none"
         d="m 1047.29,345.234 c 2.49,-0.644 4.93,-0.964 7.35,-0.964 2.4,0 4.87,0.32 7.34,0.964 2.5,0.645 4.95,1.454 7.38,2.414 v -31.105 h 28.19 v -3.367 h -28.19 v -80.754 c 0,-2.41 0.15,-4.656 0.47,-6.746 0.32,-2.09 0.94,-3.977 1.81,-5.664 0.88,-1.692 2.16,-3.02 3.86,-3.977 1.68,-0.969 3.88,-1.445 6.62,-1.445 3.07,0 5.67,0.644 7.83,1.914 2.18,1.301 4.06,2.93 5.67,4.949 1.62,2.004 2.92,4.301 3.98,6.867 1.03,2.578 1.89,5.071 2.54,7.481 l 3.61,-0.723 c -0.98,-5.469 -2.61,-9.844 -4.95,-13.144 -2.33,-3.301 -4.97,-5.821 -7.96,-7.598 -2.97,-1.77 -6.14,-2.918 -9.52,-3.496 -3.38,-0.559 -6.59,-0.84 -9.63,-0.84 -8.35,0 -14.85,0.977 -19.42,2.891 -4.57,1.945 -7.95,4.336 -10.11,7.238 -2.18,2.898 -3.43,6.023 -3.76,9.402 -0.31,3.367 -0.47,6.504 -0.47,9.407 v 74.238 h -16.15 v 3.367 h 16.15 v 31.105 c 2.42,-0.96 4.86,-1.769 7.36,-2.414" /><path
         id="path28"
         style="fill:#ffffff;fill-opacity:1;fill-rule:nonzero;stroke:none"
         d="m 1132.26,380.43 c 3.37,3.371 7.38,5.058 12.05,5.058 4.67,0 8.69,-1.687 12.05,-5.058 3.38,-3.379 5.08,-7.395 5.08,-12.063 0,-4.656 -1.7,-8.672 -5.08,-12.051 -3.36,-3.367 -7.38,-5.054 -12.05,-5.054 -4.67,0 -8.68,1.687 -12.05,5.054 -3.36,3.379 -5.06,7.395 -5.06,12.051 0,4.668 1.7,8.684 5.06,12.063 z m 26.75,-63.887 V 216.504 h 16.16 v -3.379 h -61.7 v 3.379 h 16.15 v 96.672 h -16.15 v 3.367 h 45.54" /><path
         id="path30"
         style="fill:#ffffff;fill-opacity:1;fill-rule:nonzero;stroke:none"
         d="m 1206.75,216.504 v 96.672 h -15.92 v 3.367 h 44.82 v -24.102 h 0.49 c 0.65,1.446 1.78,3.653 3.38,6.622 1.62,2.98 3.95,5.91 6.99,8.808 3.07,2.902 7,5.43 11.82,7.598 4.82,2.168 10.86,3.261 18.09,3.261 10.58,0 18.84,-3.066 24.68,-9.167 5.88,-6.106 8.81,-14.465 8.81,-25.083 v -67.976 h 16.15 v -3.379 h -60.5 v 3.379 h 14.96 v 76.172 c 0,6.758 -1.39,11.711 -4.1,14.836 -2.74,3.125 -6.43,4.695 -11.1,4.695 -3.85,0 -7.56,-0.918 -11.09,-2.766 -3.54,-1.851 -6.62,-4.628 -9.28,-8.316 -2.66,-3.691 -4.78,-8.281 -6.39,-13.742 -1.62,-5.469 -2.42,-11.895 -2.42,-19.285 v -51.594 h 15.2 v -3.379 h -60.51 v 3.379 h 15.92" /><path
         id="path32"
         style="fill:#ffffff;fill-opacity:1;fill-rule:nonzero;stroke:none"
         d="m 1408.02,381.398 c -6.58,0 -12.62,-1.847 -18.07,-5.558 -5.49,-3.692 -10.29,-7.988 -14.47,-12.879 -4.18,-4.914 -7.68,-9.809 -10.49,-14.699 -2.81,-4.91 -4.94,-8.574 -6.39,-10.977 h -3.38 l 16.88,47.481 h 145.37 l -16.87,-47.481 h -3.38 c 0.8,3.203 1.34,6.738 1.68,10.598 0.31,3.855 0.47,7.715 0.47,11.57 0,6.113 -1.65,11.289 -4.95,15.559 -3.28,4.258 -9.02,6.386 -17.2,6.386 h -23.87 l -59.06,-164.894 h 27.48 l -0.96,-3.379 h -74.49 l 0.96,3.379 h 25.33 l 59.02,164.894 h -23.61" /><path
         id="path34"
         style="fill:#ffffff;fill-opacity:1;fill-rule:nonzero;stroke:none"
         d="m 1495.28,300.156 c 1.27,4.336 2.58,8.672 3.85,13.02 h -20.96 l 0.96,3.367 h 37.11 c -0.8,-3.367 -1.97,-7.637 -3.48,-12.773 -1.52,-5.125 -3.18,-10.118 -4.96,-14.954 l 0.49,-0.476 c 1.62,2.422 3.61,5.312 6.04,8.691 2.42,3.36 5.13,6.621 8.18,9.746 3.07,3.145 6.43,5.801 10.12,7.957 3.73,2.18 7.63,3.266 11.83,3.266 5.94,0 10.49,-1.691 13.6,-5.062 3.14,-3.375 4.63,-6.981 4.47,-10.86 0,-2.566 -0.45,-4.683 -1.33,-6.375 -0.88,-1.687 -1.99,-2.969 -3.38,-3.855 -1.35,-0.903 -2.77,-1.496 -4.2,-1.821 -1.44,-0.308 -2.83,-0.476 -4.1,-0.476 -2.26,0 -4.1,0.578 -5.56,1.687 -1.43,1.125 -2.15,2.817 -2.15,5.063 0,1.765 0.35,3.094 1.09,3.992 0.72,0.867 1.47,1.711 2.29,2.52 0.8,0.8 1.56,1.679 2.28,2.648 0.72,0.977 1.09,2.254 1.09,3.855 0,1.614 -0.66,2.891 -1.93,3.86 -1.29,0.965 -2.91,1.453 -4.82,1.453 -3.07,0 -6.6,-1.57 -10.63,-4.707 -4,-3.145 -7.97,-7.156 -11.91,-12.051 -3.93,-4.902 -7.68,-10.488 -11.23,-16.766 -3.54,-6.25 -6.41,-12.531 -8.67,-18.781 l -17.35,-49.199 h -16.85 l 26.01,74.258 c 1.43,4.18 2.81,8.437 4.1,12.773" /><path
         id="path36"
         style="fill:#ffffff;fill-opacity:1;fill-rule:nonzero;stroke:none"
         d="m 1651.36,295.938 c 0.56,2.167 0.86,4.062 0.86,5.664 0,1.457 -0.22,3.027 -0.61,4.699 -0.41,1.687 -1.11,3.262 -2.19,4.707 -1.03,1.441 -2.44,2.691 -4.2,3.726 -1.77,1.047 -4.1,1.575 -6.99,1.575 -5.31,0 -10.49,-1.496 -15.54,-4.461 -5.08,-2.961 -9.83,-6.875 -14.24,-11.692 -4.42,-4.812 -8.48,-10.32 -12.15,-16.511 -3.71,-6.184 -6.9,-12.461 -9.53,-18.79 -2.66,-6.359 -4.71,-12.511 -6.15,-18.457 -1.45,-5.949 -2.17,-11.164 -2.17,-15.656 0,-5.144 0.99,-9.336 3.01,-12.539 2.01,-3.215 5.33,-4.836 10,-4.836 4.64,0 9.41,1.469 14.23,4.348 4.81,2.89 9.22,6.348 13.25,10.371 4.02,4.016 7.48,8.027 10.37,12.051 2.91,4.011 4.74,7.16 5.54,9.406 l 12.8,35.418 c 1.91,5.168 3.16,8.809 3.71,10.977 z m -5.53,-64.473 c -1.05,-3.86 -1.6,-7.324 -1.6,-10.379 0,-4.184 2.03,-6.25 6.05,-6.25 3.21,0 6.1,0.918 8.68,2.762 2.57,1.836 4.78,3.933 6.64,6.269 1.83,2.324 3.36,4.656 4.59,6.985 1.19,2.339 2.03,3.992 2.52,4.949 l 3.1,-1.692 c -0.8,-1.765 -1.99,-4.019 -3.59,-6.746 -1.62,-2.746 -3.71,-5.351 -6.27,-7.832 -2.58,-2.488 -5.53,-4.668 -8.91,-6.504 -3.38,-1.855 -7.32,-2.785 -11.82,-2.785 -10.62,0 -15.91,4.824 -15.91,14.465 0,1.121 0.23,3.098 0.72,5.898 0.49,2.825 1.11,5.352 1.93,7.598 h -0.49 c -2.24,-2.723 -4.82,-5.742 -7.69,-9.031 -2.91,-3.293 -6.17,-6.359 -9.79,-9.16 -3.59,-2.817 -7.59,-5.149 -11.93,-6.985 -4.34,-1.855 -9.14,-2.785 -14.47,-2.785 -3.34,0 -6.62,0.598 -9.73,1.809 -3.14,1.211 -5.92,3.047 -8.34,5.547 -2.42,2.492 -4.3,5.664 -5.66,9.531 -1.35,3.855 -2.05,8.43 -2.05,13.723 0,6.445 1.29,12.859 3.86,19.285 2.56,6.426 5.9,12.59 10,18.437 4.11,5.879 8.83,11.301 14.2,16.289 5.41,4.973 10.86,9.309 16.43,13.008 5.53,3.699 10.99,6.602 16.39,8.672 5.37,2.102 10.15,3.145 14.33,3.145 4.83,0 8.93,-1.375 12.31,-4.102 3.38,-2.742 5.04,-6.356 5.04,-10.859 h 0.48 l 4.11,11.816 h 16.85 l -26.25,-73.027 c -1.44,-4.18 -2.69,-8.196 -3.73,-12.051" /><path
         id="path38"
         style="fill:#ffffff;fill-opacity:1;fill-rule:nonzero;stroke:none"
         d="m 1713.92,222.781 c 0,2.719 -0.32,5.102 -0.96,7.114 -0.65,2.007 -1.39,4.128 -2.19,6.382 l -5.06,13.996 c -1.42,3.68 -2.75,7.461 -3.98,11.321 -1.19,3.855 -1.82,7.539 -1.82,11.082 0,7.39 2.64,14.824 7.85,22.297 5.22,7.468 12.02,14.832 20.39,22.05 l 5.06,4.356 2.15,-2.414 c -0.96,-1.133 -2.54,-2.766 -4.69,-4.949 -2.18,-2.168 -4.33,-4.786 -6.52,-7.832 -2.17,-3.047 -4.08,-6.465 -5.76,-10.246 -1.7,-3.782 -2.56,-7.833 -2.56,-12.168 0,-6.114 0.78,-11.739 2.32,-16.875 1.51,-5.145 3.4,-10.528 5.63,-16.141 1.46,-3.859 2.64,-7.356 3.51,-10.5 0.88,-3.125 1.41,-6.066 1.57,-8.789 3.51,2.898 7.81,6.34 12.77,10.359 4.98,4.016 9.73,8.352 14.22,13.02 4.51,4.66 8.32,9.679 11.46,15.058 3.15,5.379 4.69,10.801 4.69,16.289 0,3.684 -0.41,6.7 -1.21,9.024 -0.8,2.336 -1.72,4.387 -2.75,6.152 -1.06,1.77 -1.98,3.446 -2.78,5.071 -0.8,1.589 -1.19,3.445 -1.19,5.535 0,2.734 1.06,4.707 3.24,5.898 2.19,1.211 4.79,1.817 7.82,1.817 7.89,0 11.81,-5.872 11.81,-17.61 0,-5.301 -0.95,-10.476 -2.87,-15.547 -1.93,-5.054 -4.43,-9.843 -7.48,-14.336 -3.05,-4.5 -6.54,-8.797 -10.47,-12.91 -3.96,-4.09 -7.85,-7.82 -11.72,-11.199 l -12.28,-10.598 c -3.87,-3.379 -7.07,-5.945 -9.63,-7.715 -2.58,-1.773 -5.08,-3.855 -7.48,-6.265 -2.58,-2.578 -4.79,-4.973 -6.62,-7.238 -1.88,-2.247 -3.28,-4.258 -4.24,-6.028 l -3.14,1.692 c 1.95,2.402 2.91,6.027 2.91,10.847" /><path
         id="path40"
         style="fill:#ffffff;fill-opacity:1;fill-rule:nonzero;stroke:none"
         d="m 1875.4,312.938 c -1.91,2.25 -5.14,3.371 -9.63,3.371 -4.96,0 -9.76,-1.446 -14.33,-4.336 -4.57,-2.891 -8.73,-6.465 -12.43,-10.723 -3.69,-4.258 -6.89,-8.84 -9.63,-13.75 -2.75,-4.902 -4.82,-9.441 -6.28,-13.613 3.71,-0.657 7.79,-0.977 12.3,-0.977 5.8,0 11.25,0.891 16.41,2.664 5.13,1.77 9.66,4.094 13.63,6.992 3.91,2.895 7.05,6.25 9.37,10.11 2.33,3.855 3.5,7.883 3.5,12.051 0,3.222 -0.96,5.949 -2.91,8.211 z m -0.96,-82.333 c -1.91,-2.957 -4.57,-5.925 -7.95,-8.906 -3.37,-2.976 -7.5,-5.625 -12.4,-7.961 -4.92,-2.32 -10.82,-3.496 -17.71,-3.496 -6.92,0 -12.74,1.137 -17.48,3.383 -4.73,2.242 -8.6,5.145 -11.57,8.672 -2.98,3.531 -5.17,7.43 -6.52,11.687 -1.37,4.258 -2.05,8.411 -2.05,12.414 0,8.036 1.97,16.344 5.9,24.957 3.94,8.594 9.08,16.465 15.43,23.618 6.37,7.156 13.55,13.054 21.58,17.715 8.05,4.667 16.23,7 24.59,7 3.22,0 6.43,-0.364 9.65,-1.094 3.2,-0.723 6.09,-1.797 8.67,-3.242 2.56,-1.454 4.67,-3.301 6.25,-5.547 1.64,-2.254 2.42,-4.992 2.42,-8.203 0,-4.336 -1.17,-8.157 -3.47,-11.446 -2.35,-3.301 -5.36,-6.113 -9.05,-8.437 -3.71,-2.324 -7.77,-4.309 -12.19,-5.906 -4.41,-1.614 -8.73,-2.844 -12.91,-3.743 -4.17,-0.886 -7.96,-1.523 -11.42,-1.922 -3.48,-0.402 -6,-0.597 -7.6,-0.597 -2.73,0 -5.39,0.078 -7.95,0.234 -2.58,0.156 -4.84,0.403 -6.76,0.735 -1.77,-5.168 -3.24,-10.247 -4.47,-15.325 -1.19,-5.058 -1.8,-10.41 -1.8,-16.015 0,-8.672 2.25,-15.157 6.76,-19.414 4.49,-4.258 10.22,-6.399 17.09,-6.399 5.18,0 9.69,1.02 13.64,3.02 3.92,2.011 7.4,4.375 10.37,7.121 2.98,2.722 5.45,5.508 7.48,8.308 1.99,2.813 3.65,5.02 4.94,6.641 l 2.87,-1.699 c -0.96,-1.121 -2.38,-3.164 -4.34,-6.153" /><path
         id="path42"
         style="fill:#ffffff;fill-opacity:1;fill-rule:nonzero;stroke:none"
         d="m 1922.9,234.844 c -0.8,-2.422 -1.6,-4.871 -2.4,-7.364 -0.8,-2.48 -1.21,-4.851 -1.21,-7.109 0,-1.933 0.58,-3.586 1.7,-4.949 1.11,-1.359 2.81,-2.055 5.05,-2.055 2.58,0 5.1,0.891 7.58,2.668 2.5,1.77 4.79,3.809 6.9,6.145 2.07,2.324 3.85,4.707 5.29,7.117 1.47,2.402 2.5,4.336 3.13,5.781 l 2.91,-1.211 c -0.67,-1.289 -1.66,-3.262 -3.03,-5.906 -1.37,-2.648 -3.26,-5.305 -5.69,-7.949 -2.38,-2.649 -5.37,-4.946 -8.9,-6.887 -3.54,-1.914 -7.72,-2.883 -12.52,-2.883 -5.31,0 -9.53,1.074 -12.68,3.266 -3.1,2.168 -4.68,5.816 -4.68,10.957 0,2.742 0.48,5.75 1.44,9.043 0.96,3.301 1.93,6.305 2.89,9.051 l 53.75,150.41 h -21.44 l 0.95,3.371 h 38.34 L 1922.9,234.844" /><path
         id="path44"
         style="fill:#f14624;fill-opacity:1;fill-rule:nonzero;stroke:none"
         d="m 336.672,385.52 c -18.774,-18.582 -38.637,-40.918 -80.117,-82.922 36.543,-27.11 103.648,-73.387 168.047,-99.375 18.242,-7.364 34.753,-11.692 49.824,-13.621 l 0.094,0.086 c 0,0 0.656,-0.11 1.585,-0.247 2.594,-0.293 5.125,-0.496 7.633,-0.652 19.321,-0.906 65.395,2.316 100.188,48.352 30.09,39.761 15.433,123.062 -23.504,186.035 -69.567,117.871 -208.942,-23 -223.75,-37.656" /></g></g></svg>